<?xml version="1.0" encoding="UTF-8"?>
<!-- Generator: Adobe Illustrator 27.4.1, SVG Export Plug-In . SVG Version: 6.00 Build 0)  -->
<svg width="300" height="299.99997" version="1.1" viewBox="0 0 300 299.99997" xml:space="preserve" xmlns="http://www.w3.org/2000/svg">
<style type="text/css">
	.st0{fill:#004EA2;}
</style>
<path class="st0" d="m223.42658 149.99185c0-24.87584-6.06777-48.34023-16.7832-68.996483h-125.607879v138.001353h125.607879c6.29367-12.11904 10.96555-25.22305 13.76544-38.99635h42.67619c-13.2491 50.06689-58.85425 86.982-113.09309 86.982-64.599229 0-116.974173-52.37467-116.974173-116.99052 0-64.599094 52.374944-116.973764 116.974173-116.973764 54.23884 0 99.84399 36.906737 113.09309 86.981994h33.90529c-13.90263-68.464111-74.42711-120.00008-146.99838-120.00008-82.834857 0-149.99192 67.157063-149.99192 149.99185 0 82.85105 67.157063 150.00812 149.99192 150.00812 82.84295 0 150.00808-67.15707 150.00808-149.99974h-76.57342v-8e-3zm-53.93221 39.02098c-0.25014 0-0.50027-8e-3 -0.74234-0.0161h-53.49651v-77.99368h53.35933c0.29855-0.0161 0.58096-0.0242 0.87952-0.0242 10.3039 0 18.65516 8.35943 18.65516 18.65529 0 9.05284-6.44701 16.59769-14.99191 18.30021-0.0645 0.0161-0.12104 0.0323-0.18559 0.0395-0.53254 0.13742-0.9118 0.61364-0.9118 1.1864 0 0.58112 0.39537 1.06524 0.92793 1.19427 0.0484 8e-3 0.0888 0.0161 0.13717 0.0242 9.02098 1.70251 15.84724 9.62609 15.84724 19.14728 0 10.75585-8.72244 19.4861-19.4782 19.4861" stroke-width="8.06886"/>
<script xmlns=""/></svg>