<?xml version="1.0" encoding="UTF-8"?>
<svg xmlns="http://www.w3.org/2000/svg" xmlns:xlink="http://www.w3.org/1999/xlink" width="220pt" height="170pt"
    viewBox="11 0 220 170" version="1.1">

    <g id="surface1">
        <path style=" stroke:none;fill-rule:nonzero;fill:rgb(0%,30.588235%,63.137255%);fill-opacity:1;"
            d="M 69.824219 10 C 90.859375 1.21875 114.234375 -1.574219 136.847656 0.863281 C 160.992188 3.5 184.777344 12.6875 203.007812 28.929688 C 216.457031 40.855469 226.640625 56.996094 229.390625 74.910156 C 232.246094 92.269531 227.203125 110.386719 217.015625 124.597656 C 192.515625 107.542969 167.96875 90.59375 143.46875 73.539062 C 140.871094 71.5625 137.410156 71.613281 134.300781 72.171875 C 131.449219 72.527344 128.34375 73.386719 125.644531 72.070312 C 122.792969 70.546875 122.230469 66.941406 119.683594 65.117188 C 117.242188 63.695312 114.335938 64.914062 112.199219 66.332031 C 83.167969 85.722656 54.085938 105.160156 24.953125 124.546875 C 17.109375 112.824219 11.863281 99.019531 11.8125 84.757812 C 11.710938 69.734375 17.160156 54.914062 26.125 42.9375 C 37.125 28.066406 52.8125 17.054688 69.824219 10 Z M 95.1875 26.492188 C 93.097656 26.695312 91.0625 27 89.023438 27.355469 C 87.648438 27.609375 87.140625 29.234375 87.394531 30.453125 C 88.210938 35.425781 89.226562 40.347656 90.09375 45.269531 C 76.136719 46.132812 62.183594 46.996094 48.175781 47.910156 C 44.664062 47.960938 42.21875 50.703125 39.46875 52.476562 C 56.988281 52.882812 74.507812 53.339844 92.027344 53.796875 C 92.640625 56.183594 93.8125 58.972656 96.5625 59.429688 C 103.386719 60.546875 109.90625 57.503906 116.425781 56.082031 C 121.109375 54.914062 125.949219 55.117188 130.738281 54.964844 C 152.484375 54.355469 174.234375 53.796875 195.980469 53.136719 C 199.445312 53.1875 201.785156 50.246094 204.539062 48.621094 C 189.207031 47.300781 173.875 46.03125 158.496094 44.664062 C 162.007812 42.683594 165.523438 40.703125 169.039062 38.773438 C 170.566406 37.863281 172.296875 36.542969 172.449219 34.613281 C 172.652344 32.582031 170.972656 30.859375 169.140625 30.300781 C 167.203125 29.691406 165.523438 28.574219 163.792969 27.507812 C 161.601562 26.136719 158.902344 26.542969 156.558594 27.355469 C 143.519531 32.074219 130.535156 36.949219 117.496094 41.667969 C 114.644531 42.53125 110.925781 43.292969 108.632812 40.855469 C 105.117188 36.746094 101.707031 32.480469 98.242188 28.371094 C 97.429688 27.457031 96.511719 26.339844 95.1875 26.492188 Z M 95.1875 26.492188 " />
        <path style=" stroke:none;fill-rule:nonzero;fill:rgb(0%,30.588235%,63.137255%);fill-opacity:1;"
            d="M 104.40625 87.851562 C 107.511719 81.101562 115 76.078125 122.589844 76.839844 C 126.511719 77.296875 130.125 79.328125 132.925781 82.066406 C 150.398438 99.324219 167.96875 116.527344 185.4375 133.734375 C 155.796875 133.734375 126.152344 133.734375 96.5625 133.734375 C 84.59375 133.683594 72.625 133.835938 60.65625 133.632812 C 60.808594 132.871094 61.164062 132.261719 61.726562 131.753906 C 66.054688 127.441406 70.382812 123.125 74.710938 118.8125 C 75.324219 118.050781 76.292969 117.847656 77.207031 117.949219 C 94.371094 117.949219 111.535156 117.949219 128.648438 117.949219 C 135.472656 117.898438 142.351562 118.101562 149.175781 117.847656 C 148.359375 115.96875 146.933594 114.496094 145.761719 112.824219 C 144.945312 111.808594 144.335938 110.589844 143.316406 109.726562 C 142.246094 109.269531 140.972656 109.574219 139.855469 109.472656 C 121.007812 109.472656 102.113281 109.574219 83.269531 109.421875 C 83.929688 108.152344 85.050781 107.242188 86.019531 106.277344 C 89.175781 103.179688 92.285156 100.035156 95.441406 96.886719 C 96.054688 96.328125 96.664062 95.617188 97.582031 95.71875 C 109.652344 95.667969 121.722656 95.769531 133.792969 95.667969 C 132.417969 93.433594 130.789062 91.355469 129.363281 89.171875 C 128.902344 88.664062 128.546875 87.75 127.730469 87.902344 C 119.941406 87.800781 112.199219 87.902344 104.40625 87.851562 Z M 104.40625 87.851562 " />
        <path style=" stroke:none;fill-rule:nonzero;fill:rgb(87.843137%,49.803922%,0%);fill-opacity:1;"
            d="M 44.867188 145.558594 C 76.035156 145.507812 107.207031 145.558594 138.429688 145.507812 C 157.984375 145.558594 177.59375 145.457031 197.152344 145.558594 C 190.074219 150.9375 182.128906 155.152344 173.976562 158.652344 C 152.027344 167.890625 127.628906 170.933594 104.050781 168.09375 C 82.863281 165.503906 62.03125 158.195312 44.867188 145.558594 Z M 44.867188 145.558594 " />
    </g>
</svg>